<svg width="15" height="15" viewBox="0 0 15 15" fill="none" xmlns="http://www.w3.org/2000/svg">
<path d="M10.6249 1.24989C11.453 1.25236 12.2465 1.58242 12.832 2.16798C13.4176 2.75354 13.7476 3.54701 13.7501 4.37511V10.6249C13.7476 11.453 13.4176 12.2465 12.832 12.832C12.2465 13.4176 11.453 13.7476 10.6249 13.7501H4.37511C3.54701 13.7476 2.75354 13.4176 2.16798 12.832C1.58242 12.2465 1.25236 11.453 1.24989 10.6249V4.37511C1.25236 3.54701 1.58242 2.75354 2.16798 2.16798C2.75354 1.58242 3.54701 1.25236 4.37511 1.24989H10.6249ZM10.6249 0H4.37511C1.96875 0 0 1.96875 0 4.37511V10.6249C0 13.0312 1.96875 15 4.37511 15H10.6249C13.0312 15 15 13.0312 15 10.6249V4.37511C15 1.96875 13.0312 0 10.6249 0Z" fill="white"/>
<path d="M11.5624 4.37511C11.377 4.37511 11.1957 4.32013 11.0415 4.21711C10.8874 4.1141 10.7672 3.96768 10.6963 3.79638C10.6253 3.62507 10.6067 3.43657 10.6429 3.25471C10.6791 3.07286 10.7684 2.90581 10.8995 2.7747C11.0306 2.64359 11.1976 2.5543 11.3795 2.51813C11.5613 2.48195 11.7498 2.50052 11.9212 2.57147C12.0925 2.64243 12.2389 2.76259 12.3419 2.91676C12.4449 3.07094 12.4999 3.25219 12.4999 3.43761C12.5002 3.5608 12.4761 3.68283 12.4291 3.79669C12.382 3.91055 12.313 4.01401 12.2259 4.10111C12.1388 4.18822 12.0353 4.25727 11.9215 4.30429C11.8076 4.35131 11.6856 4.37538 11.5624 4.37511Z" fill="white"/>
<path d="M7.5 4.99989C7.99448 4.99989 8.47785 5.14652 8.88899 5.42123C9.30013 5.69595 9.62057 6.08641 9.8098 6.54325C9.99903 7.00008 10.0485 7.50277 9.95207 7.98775C9.85561 8.47272 9.61749 8.9182 9.26785 9.26785C8.9182 9.61749 8.47272 9.85561 7.98775 9.95207C7.50277 10.0485 7.00008 9.99903 6.54325 9.8098C6.08641 9.62057 5.69595 9.30013 5.42123 8.88899C5.14652 8.47785 4.99989 7.99448 4.99989 7.5C5.0006 6.83715 5.26423 6.20165 5.73294 5.73294C6.20165 5.26423 6.83715 5.0006 7.5 4.99989ZM7.5 3.75C6.75832 3.75 6.0333 3.96993 5.41661 4.38199C4.79993 4.79404 4.31928 5.37971 4.03545 6.06494C3.75162 6.75016 3.67736 7.50416 3.82206 8.23159C3.96675 8.95902 4.3239 9.6272 4.84835 10.1517C5.3728 10.6761 6.04098 11.0333 6.76841 11.1779C7.49584 11.3226 8.24984 11.2484 8.93506 10.9645C9.62029 10.6807 10.206 10.2001 10.618 9.58339C11.0301 8.9667 11.25 8.24168 11.25 7.5C11.25 6.50544 10.8549 5.55161 10.1517 4.84835C9.44839 4.14509 8.49456 3.75 7.5 3.75Z" fill="white"/>
</svg>
