<svg width="15" height="15" viewBox="0 0 15 15" fill="none" xmlns="http://www.w3.org/2000/svg">
<path fill-rule="evenodd" clip-rule="evenodd" d="M15 15H12V9.75073C12 8.31073 11.3648 7.50732 10.2255 7.50732C8.98575 7.50732 8.25 8.34448 8.25 9.75073V15H5.25V5.25H8.25V6.34644C8.25 6.34644 9.19125 4.69482 11.3122 4.69482C13.434 4.69482 15 5.98958 15 8.66858V15ZM1.8315 3.69067C0.819751 3.69067 0 2.86422 0 1.84497C0 0.826471 0.819751 0 1.8315 0C2.8425 0 3.66225 0.826471 3.66225 1.84497C3.663 2.86422 2.8425 3.69067 1.8315 3.69067ZM0 15H3.75V5.25H0V15Z" fill="white"/>
</svg>
