<svg width="17" height="17" viewBox="0 0 17 17" fill="none" xmlns="http://www.w3.org/2000/svg">
<path d="M11.8333 8.5C11.8333 10.3409 10.3409 11.8333 8.5 11.8333C6.65905 11.8333 5.16667 10.3409 5.16667 8.5C5.16667 6.65905 6.65905 5.16667 8.5 5.16667C10.3409 5.16667 11.8333 6.65905 11.8333 8.5ZM11.8333 8.5V9.75C11.8333 10.9006 12.7661 11.8333 13.9167 11.8333C15.0672 11.8333 16 10.9006 16 9.75V8.5C16 4.35787 12.6422 1 8.5 1C4.35787 1 1 4.35787 1 8.5C1 12.6422 4.35787 16 8.5 16H11.8333" stroke="white" stroke-width="1.5" stroke-linecap="round" stroke-linejoin="round"/>
</svg>
