<svg width="1920" height="118" viewBox="0 0 1920 118" fill="none" xmlns="http://www.w3.org/2000/svg">
<path d="M72.2603 98.9202C220.893 78.1593 376.864 37.2954 527.285 20.5411C682.071 3.25868 843.518 4.26533 998.548 20.9298C1107.38 32.6209 1213.06 51.8967 1322.19 62.6509C1524.99 82.4096 1734.14 72.3827 1926.94 33.6575V126H-331.056V101.88C-203.461 124.924 -59.5505 117.339 72.2603 98.9202Z" fill="#333232"/>
<path d="M1576.04 90.9202C1447.02 70.1593 1311.63 29.2954 1181.06 12.5411C1046.71 -4.74132 906.566 -3.73467 771.995 12.9298C677.523 24.6209 585.795 43.8967 491.062 54.6509C315.027 74.4096 133.486 64.3827 -33.875 25.6575V118H1926.12V93.8803C1815.37 116.924 1690.45 109.339 1576.04 90.9202Z" fill="#0B0B0B"/>
</svg>
